<svg width="19" height="24" viewBox="0 0 19 24" fill="none" xmlns="http://www.w3.org/2000/svg">
<path d="M19 9.2802C19.0053 7.55777 18.5168 5.86809 17.5896 4.40137C16.6623 2.93466 15.3331 1.74915 13.7516 0.978296C12.17 0.207445 10.399 -0.11814 8.63775 0.0381939C6.87652 0.194528 5.19507 0.826574 3.78268 1.86318C2.37028 2.89979 1.28302 4.29979 0.643301 5.9056C0.00357933 7.5114 -0.163207 9.25925 0.161717 10.9524C0.486641 12.6455 1.29038 14.2167 2.48244 15.489C3.6745 16.7614 5.20757 17.6844 6.90905 18.1541L9.49996 24L12.0909 18.1962C14.0827 17.6463 15.8356 16.4777 17.0828 14.8682C18.3299 13.2588 19.0032 11.2966 19 9.2802V9.2802Z" fill="#2979FF"/>
<path d="M13 9.48007C13.0019 8.83416 12.822 8.20053 12.4804 7.65051C12.1387 7.1005 11.649 6.65593 11.0664 6.36686C10.4837 6.07779 9.8312 5.9557 9.18233 6.01432C8.53346 6.07295 7.91397 6.30997 7.39362 6.69869C6.87326 7.08742 6.47269 7.61242 6.23701 8.2146C6.00132 8.81678 5.93987 9.47222 6.05958 10.1071C6.17929 10.7421 6.4754 11.3312 6.91458 11.8084C7.35376 12.2855 7.91858 12.6316 8.54544 12.8078L9.49998 15L10.4545 12.8236C11.1884 12.6174 11.8342 12.1791 12.2937 11.5756C12.7531 10.972 13.0012 10.2362 13 9.48007V9.48007Z" fill="#7E57C2"/>
<path d="M13 9.48007C13.0019 8.83416 12.822 8.20053 12.4804 7.65051C12.1387 7.1005 11.649 6.65593 11.0664 6.36686C10.4837 6.07779 9.8312 5.9557 9.18233 6.01432C8.53346 6.07295 7.91397 6.30997 7.39362 6.69869C6.87326 7.08742 6.47269 7.61242 6.23701 8.2146C6.00132 8.81678 5.93987 9.47222 6.05958 10.1071C6.17929 10.7421 6.4754 11.3312 6.91458 11.8084C7.35376 12.2855 7.91858 12.6316 8.54544 12.8078L9.49998 15L10.4545 12.8236C11.1884 12.6174 11.8342 12.1791 12.2937 11.5756C12.7531 10.972 13.0012 10.2362 13 9.48007Z" fill="#9CCC65"/>
<path d="M13 9.48007C13.0019 8.83416 12.822 8.20053 12.4804 7.65051C12.1387 7.1005 11.649 6.65593 11.0664 6.36686C10.4837 6.07779 9.8312 5.9557 9.18233 6.01432C8.53346 6.07295 7.91397 6.30997 7.39362 6.69869C6.87326 7.08742 6.47269 7.61242 6.23701 8.2146C6.00132 8.81678 5.93987 9.47222 6.05958 10.1071C6.17929 10.7421 6.4754 11.3312 6.91458 11.8084C7.35376 12.2855 7.91858 12.6316 8.54544 12.8078L9.49998 15L10.4545 12.8236C11.1884 12.6174 11.8342 12.1791 12.2937 11.5756C12.7531 10.972 13.0012 10.2362 13 9.48007V9.48007Z" fill="#EC407A"/>
<path d="M13 9.48007C13.0019 8.83416 12.822 8.20053 12.4804 7.65051C12.1387 7.1005 11.649 6.65593 11.0664 6.36686C10.4837 6.07779 9.8312 5.9557 9.18233 6.01432C8.53346 6.07295 7.91397 6.30997 7.39362 6.69869C6.87326 7.08742 6.47269 7.61242 6.23701 8.2146C6.00132 8.81678 5.93987 9.47222 6.05958 10.1071C6.17929 10.7421 6.4754 11.3312 6.91458 11.8084C7.35376 12.2855 7.91858 12.6316 8.54544 12.8078L9.49998 15L10.4545 12.8236C11.1884 12.6174 11.8342 12.1791 12.2937 11.5756C12.7531 10.972 13.0012 10.2362 13 9.48007V9.48007Z" fill="#FFCA28"/>
</svg>
